<?xml version="1.0" encoding="UTF-8"?>
<svg id="Layer_1" data-name="Layer 1" xmlns="http://www.w3.org/2000/svg" viewBox="0 0 731.64 164.38">
  <defs>
    <style>
      .cls-1 {
        fill: #ce0e2d;
      }

      .cls-2 {
        fill: #0069b5;
      }

      .cls-3 {
        fill: #ed1651;
      }
    </style>
  </defs>
  <g>
    <path d="M20.46,132.24c0-.93.01-1.85.04-2.76.03-.91.04-1.9.04-2.98h-6.89c.08.63.14,1.46.18,2.51.04,1.04.06,2.23.08,3.54.01,1.32.02,2.75.02,4.31s0,3.17.02,4.84c.01,1.67.02,3.33.02,4.97,0,.5-.07.91-.2,1.25-.13.34-.33.59-.59.74-.26.16-.59.23-.98.23-.5,0-.92-.06-1.27-.18s-.68-.25-1-.41c-.03.23-.05.6-.08,1.1-.03.5-.07,1.04-.12,1.64-.05.6-.1,1.19-.16,1.78-.05.59-.1,1.11-.16,1.57-.05.46-.1.82-.16,1.08.76.18,1.55.34,2.39.47.84.13,1.64.2,2.43.2,1.2,0,2.23-.18,3.07-.55.85-.37,1.51-.91,2-1.62s.84-1.57,1.06-2.55c.22-.98.33-2.04.33-3.19,0-2.19-.01-4.14-.04-5.83-.03-1.7-.04-3.14-.04-4.33v-5.83Z"/>
    <path d="M40.78,131.13h-6.34v1.8c0,.63,0,1.32.02,2.07.01.76.03,1.68.04,2.76.01,1.08.02,2.36.02,3.82v5.17c0,.68-.07,1.25-.2,1.72-.13.47-.32.85-.57,1.14-.25.29-.53.49-.84.61s-.64.18-.98.18c-.44,0-.8-.08-1.06-.25s-.46-.44-.61-.8c-.14-.36-.22-.87-.22-1.53v-6.52c0-2,0-3.84.02-5.52.01-1.68.03-3.23.06-4.64h-6.34c0,1.33.01,2.68.04,4.03.03,1.36.04,2.85.04,4.46,0,.73,0,1.46-.02,2.19-.01.73-.02,1.49-.02,2.29s0,1.69-.02,2.68-.02,2.1-.02,3.33c0,1.07.11,1.98.33,2.74.22.76.56,1.38,1.02,1.86.46.48,1,.85,1.64,1.1.64.25,1.34.37,2.09.37,1.07,0,2-.18,2.8-.55.8-.37,1.45-.95,1.98-1.76.24-.38.45-.81.63-1.28l.21.03c-.01.52-.02,1.03-.02,1.53,0,.52-.01,1.1-.04,1.72h6.34c-.03-1.67-.03-3.5-.02-5.5.01-2,.02-4.3.02-6.91,0-1.83-.01-3.45-.04-4.85-.03-1.41-.03-2.71-.02-3.91.01-1.2.03-2.39.06-3.56Z"/>
    <path d="M60.86,147.29c0-.73,0-1.45-.02-2.17-.01-.72-.01-1.47,0-2.25.01-.78.02-1.64.02-2.58v-3.21c0-1.17-.1-2.15-.31-2.92-.21-.77-.53-1.4-.96-1.9s-.97-.86-1.62-1.1c-.65-.23-1.38-.35-2.19-.35-1.02,0-1.93.19-2.74.57-.81.38-1.47.97-2,1.76-.23.35-.42.75-.6,1.2l-.26-.02c0-.47.01-.95.03-1.41.03-.53.04-1.13.04-1.78h-6.3c0,1.67,0,3.49.02,5.46.01,1.97.02,4.29.02,6.95v4.8c0,1.4,0,2.7-.02,3.91s-.02,2.42-.02,3.62h6.3c0-.6-.01-1.21-.04-1.82-.03-.61-.03-1.31-.02-2.09.01-.78.03-1.7.04-2.74.01-1.04.02-2.29.02-3.74v-5.11c0-.65.06-1.21.18-1.68.12-.47.29-.84.51-1.12.22-.27.49-.48.8-.61s.65-.2,1.02-.2c.5,0,.87.09,1.14.25.26.17.46.44.59.82.13.38.2.89.2,1.55v6.44c0,1.97-.01,3.78-.04,5.44-.03,1.66-.05,3.19-.08,4.6h6.42c-.05-1.36-.09-2.71-.1-4.07-.01-1.36-.02-2.86-.02-4.5Z"/>
    <path d="M78.38,133.98c-.35-.73-.82-1.34-1.39-1.82-.57-.48-1.29-.84-2.13-1.08-.85-.23-1.87-.35-3.07-.35-1.41,0-2.65.22-3.72.65-1.07.43-1.96,1.12-2.66,2.08-.7.95-1.25,2.28-1.62,3.99-.38,1.71-.57,3.83-.57,6.36,0,1.88.12,3.53.35,4.95.23,1.42.57,2.62,1,3.58.43.97.99,1.73,1.66,2.29s1.47.97,2.37,1.23,1.9.39,3,.39,2.08-.08,2.86-.23c.78-.16,1.46-.39,2.04-.7.57-.31,1.06-.72,1.45-1.21.39-.5.68-1.08.88-1.74s.34-1.42.43-2.25c.09-.83.11-1.75.06-2.74-.44,0-.9,0-1.37.02-.47.01-.99.02-1.57.02h-1.86c-.27,0-.53-.01-.76-.04.03.57.01,1.08-.04,1.53-.05.44-.12.83-.2,1.16s-.2.57-.37.74-.37.3-.61.39c-.23.09-.5.14-.78.14-.44,0-.83-.1-1.15-.29-.33-.2-.59-.53-.8-1-.21-.47-.36-1.16-.45-2.07-.08-.78-.12-1.72-.13-2.82h.44c.48,0,1.01,0,1.59-.02.57-.01,1.17-.02,1.8-.02.57,0,1.13,0,1.66.02.53.01,1.06.02,1.57.02s1.02,0,1.53.02c.51.01.97.02,1.39.02.05-.31.08-.76.1-1.33.01-.57.03-1.2.06-1.88.03-.68.04-1.4.04-2.15,0-1.17-.08-2.26-.23-3.25s-.41-1.85-.76-2.58ZM72.55,141.91c-.35.01-.71,0-1.08-.02s-.7-.04-1.02-.04-.63,0-.96.02c-.09,0-.17,0-.26,0,.02-.77.06-1.45.1-2.04.09-1.19.25-2.1.47-2.74.22-.64.49-1.07.8-1.29s.67-.33,1.06-.33.74.07,1.04.22.53.38.69.7c.16.33.27.76.33,1.29.07.54.1,1.23.1,2.09s-.01,1.48-.04,1.94c0,.06,0,.12,0,.18h-.15c-.37,0-.72,0-1.08.02Z"/>
    <path d="M93.98,129.17c.01-1.02.03-1.9.06-2.66h-3.45c-.55.55-1.15,1.06-1.82,1.55-.67.48-1.38.95-2.13,1.39.03.52.05,1.14.08,1.86.03.72.06,1.55.1,2.49.04.94.07,2.02.1,3.23.03,1.21.04,2.6.04,4.17v4.4c0,1.37,0,2.66-.02,3.86-.01,1.2-.03,2.34-.06,3.41-.03,1.07-.05,2.07-.08,3.01.78-.03,1.45-.04,2.02-.04h3.17c.56,0,1.25.01,2.06.04-.03-.94-.05-1.95-.06-3.03-.01-1.08-.03-2.23-.04-3.43-.01-1.2-.02-2.49-.02-3.86v-4.37c0-1.57,0-3.07-.02-4.52-.01-1.45,0-2.8.02-4.07.03-1.27.05-2.41.06-3.43Z"/>
    <path d="M113.89,143.11c-.42-.57-1.01-1.03-1.76-1.37-.31-.13-.68-.25-1.1-.35-.21-.05-.44-.08-.67-.12v-.3s.05,0,.08-.01c.68-.13,1.27-.3,1.76-.51.68-.39,1.21-.87,1.61-1.43.39-.56.68-1.25.88-2.08s.29-1.82.29-3c0-1.33-.17-2.49-.51-3.46-.34-.98-.86-1.79-1.55-2.43-.69-.64-1.59-1.13-2.7-1.47-1.11-.34-2.46-.51-4.05-.51s-3.01.18-4.11.53-2,.85-2.7,1.49c-.7.64-1.23,1.44-1.57,2.41-.34.97-.51,2.11-.51,3.45,0,1.15.1,2.15.29,3,.2.85.5,1.55.9,2.09s.93,1.02,1.59,1.41c.44.21,1.02.38,1.74.51.02,0,.04,0,.06.01v.32c-.19.03-.41.06-.59.1-.39.08-.77.2-1.14.35-.73.34-1.31.8-1.72,1.37-.42.57-.72,1.27-.92,2.07-.2.81-.29,1.76-.29,2.86,0,1.36.18,2.56.55,3.6.36,1.04.91,1.91,1.64,2.58.73.68,1.66,1.19,2.78,1.53,1.12.34,2.44.51,3.95.51s2.86-.17,3.97-.51c1.11-.34,2.03-.85,2.76-1.53.73-.68,1.27-1.54,1.62-2.58.35-1.04.53-2.26.53-3.64,0-1.1-.09-2.04-.25-2.84-.17-.8-.46-1.48-.88-2.06ZM103.77,133.1c.12-.43.29-.78.51-1.06.22-.27.49-.48.8-.63.31-.14.67-.22,1.06-.22s.74.07,1.06.22c.31.14.59.35.84.63s.43.63.55,1.06.18.99.18,1.66c0,.76-.06,1.38-.18,1.86-.12.48-.28.89-.49,1.21-.21.33-.48.56-.8.7-.33.14-.72.22-1.19.22-.44,0-.82-.07-1.14-.22-.31-.14-.57-.38-.78-.7-.21-.33-.36-.73-.45-1.21-.09-.48-.14-1.1-.14-1.86,0-.68.06-1.23.18-1.66ZM108.66,149c-.09.51-.25.91-.47,1.19-.22.29-.5.49-.84.61-.34.12-.76.18-1.25.18-.47,0-.87-.06-1.21-.18-.34-.12-.61-.32-.82-.61-.21-.29-.36-.68-.45-1.19-.09-.51-.14-1.12-.14-1.82s.04-1.33.14-1.8c.09-.47.25-.85.47-1.14.22-.29.5-.5.84-.63.34-.13.73-.2,1.17-.2.5,0,.91.07,1.25.2.34.13.62.34.84.63.22.29.38.67.47,1.14.09.47.14,1.07.14,1.8s-.05,1.31-.14,1.82Z"/>
    <path d="M128.92,139.39c-.26.03-.61.05-1.04.06-.43.01-.89.03-1.37.04-.48.01-.97.02-1.45.02h-2.58c-.48,0-.97,0-1.45-.02-.48-.01-.92-.03-1.31-.04s-.73-.03-1.02-.06c.03.5.04,1,.04,1.51v3.11c0,.52-.01,1.04-.04,1.57.29-.03.63-.05,1.02-.06s.83-.02,1.33-.02h5.46c.48,0,.94,0,1.37.02.43.01.78.03,1.04.06-.03-.52-.05-1.04-.06-1.57-.01-.52-.02-1.04-.02-1.57s0-1.04.02-1.55c.01-.51.03-1.01.06-1.51Z"/>
    <path d="M138.9,148.2c.21-.29.46-.59.74-.92.29-.33.64-.65,1.06-.96.42-.31.87-.64,1.37-.98.78-.47,1.49-.95,2.13-1.45.64-.5,1.21-1.04,1.72-1.62.51-.59.95-1.28,1.31-2.07.36-.8.66-1.7.88-2.7.22-1,.33-2.13.33-3.39,0-1.02-.09-1.94-.27-2.78-.18-.84-.48-1.57-.88-2.21s-.92-1.17-1.55-1.61-1.39-.78-2.29-1.04c-.9-.26-1.94-.39-3.11-.39-1.44,0-2.68.19-3.72.57-1.04.38-1.92.93-2.62,1.66-.7.73-1.2,1.64-1.49,2.72-.29,1.08-.43,2.3-.43,3.66,0,.31,0,.67.02,1.06s.03.78.06,1.17c.03.39.06.8.12,1.21.44,0,.93,0,1.47-.02.53-.01,1.1-.02,1.7-.02.39,0,.83,0,1.31.02.48.01.88.02,1.19.02-.03-.6-.05-1.12-.06-1.55-.01-.43-.02-.88-.02-1.35,0-.78.08-1.44.23-1.98.16-.53.41-.92.76-1.15s.8-.35,1.35-.35c.42,0,.8.1,1.15.29.35.2.61.5.78.9.17.41.25.93.25,1.59,0,.81-.09,1.53-.27,2.17-.18.64-.47,1.21-.86,1.72s-.87,1-1.43,1.47c-.56.47-1.23.97-2.02,1.49-.81.57-1.57,1.17-2.27,1.78-.7.61-1.33,1.3-1.86,2.06-.54.76-.95,1.62-1.23,2.58-.29.97-.43,2.09-.43,3.37,0,.47,0,.9.02,1.29s.02.81.02,1.25v1.25c0,.39-.01.69-.04.9h16.09c-.03-.44-.04-.92-.04-1.43v-3.37c0-.53.01-1.06.04-1.59-.84.05-1.75.09-2.74.1s-1.98.02-2.98.02h-4.1c.03-.16.06-.32.1-.47.1-.34.26-.65.47-.94Z"/>
    <path d="M166.48,129.13c-.8-1.1-1.78-1.87-2.96-2.33-1.17-.46-2.52-.68-4.03-.68s-2.8.23-3.93.68c-1.13.46-2.09,1.23-2.86,2.33-.77,1.1-1.35,2.58-1.74,4.46-.39,1.88-.59,4.23-.59,7.05s.18,5.23.53,7.24.89,3.62,1.62,4.83,1.68,2.11,2.84,2.7c1.16.59,2.56.88,4.21.88s2.98-.29,4.17-.88c1.19-.59,2.14-1.49,2.86-2.7s1.27-2.82,1.64-4.83c.38-2.01.57-4.42.57-7.24s-.19-5.2-.57-7.07c-.38-1.87-.97-3.35-1.76-4.44ZM162.08,145.22c-.1,1.17-.26,2.06-.47,2.66-.21.6-.49,1.02-.84,1.25s-.75.35-1.19.35c-.47,0-.88-.11-1.21-.33-.34-.22-.62-.64-.84-1.25-.22-.61-.39-1.5-.49-2.66-.1-1.16-.16-2.67-.16-4.52s.05-3.22.16-4.33c.1-1.11.27-1.96.51-2.56.23-.6.52-1,.84-1.19.33-.2.72-.29,1.19-.29.42,0,.8.1,1.14.31.34.21.63.61.86,1.21.23.6.4,1.45.51,2.55s.16,2.53.16,4.31-.05,3.33-.16,4.5Z"/>
    <path class="cls-1" d="M182.8,137.47c-.76-.44-1.68-.67-2.78-.67-1.64,0-2.9.5-3.78,1.51-.87,1-1.31,2.56-1.31,4.68s.42,3.74,1.25,4.8c.83,1.06,2.11,1.59,3.84,1.59s2.94-.53,3.8-1.59c.86-1.06,1.29-2.66,1.29-4.8,0-1.38-.2-2.54-.59-3.46-.39-.93-.97-1.61-1.72-2.06Z"/>
    <path d="M200.82,132.24c0-.93.01-1.85.04-2.76.03-.91.04-1.9.04-2.98h-6.89c.08.63.14,1.46.18,2.51.04,1.04.06,2.23.08,3.54.01,1.32.02,2.75.02,4.31s0,3.17.02,4.84c.01,1.67.02,3.33.02,4.97,0,.5-.07.91-.2,1.25-.13.34-.33.59-.59.74-.26.16-.59.23-.98.23-.5,0-.92-.06-1.27-.18s-.68-.25-1-.41c-.03.23-.05.6-.08,1.1-.03.5-.07,1.04-.12,1.64-.05.6-.1,1.19-.16,1.78-.05.59-.1,1.11-.16,1.57-.05.46-.1.82-.16,1.08.76.18,1.55.34,2.39.47.84.13,1.64.2,2.43.2,1.2,0,2.23-.18,3.07-.55.85-.37,1.51-.91,2-1.62s.84-1.57,1.06-2.55c.22-.98.33-2.04.33-3.19,0-2.19-.01-4.14-.04-5.83-.03-1.7-.04-3.14-.04-4.33v-5.83Z"/>
    <path d="M221.14,131.13h-6.34v1.8c0,.63,0,1.32.02,2.07.01.76.03,1.68.04,2.76.01,1.08.02,2.36.02,3.82v5.17c0,.68-.07,1.25-.2,1.72-.13.47-.32.85-.57,1.14-.25.29-.53.49-.84.61s-.64.18-.98.18c-.44,0-.8-.08-1.06-.25s-.46-.44-.61-.8c-.14-.36-.22-.87-.22-1.53v-6.52c0-2,0-3.84.02-5.52.01-1.68.03-3.23.06-4.64h-6.34c0,1.33.01,2.68.04,4.03.03,1.36.04,2.85.04,4.46,0,.73,0,1.46-.02,2.19-.01.73-.02,1.49-.02,2.29s0,1.69-.02,2.68-.02,2.1-.02,3.33c0,1.07.11,1.98.33,2.74.22.76.56,1.38,1.02,1.86.46.48,1,.85,1.64,1.1.64.25,1.34.37,2.09.37,1.07,0,2-.18,2.8-.55.8-.37,1.45-.95,1.98-1.76.24-.38.45-.81.63-1.28l.21.03c-.01.52-.02,1.03-.02,1.53,0,.52-.01,1.1-.04,1.72h6.34c-.03-1.67-.03-3.5-.02-5.5.01-2,.02-4.3.02-6.91,0-1.83-.01-3.45-.04-4.85-.03-1.41-.03-2.71-.02-3.91.01-1.2.03-2.39.06-3.56Z"/>
    <path d="M241.22,147.29c0-.73,0-1.45-.02-2.17-.01-.72-.01-1.47,0-2.25.01-.78.02-1.64.02-2.58v-3.21c0-1.17-.1-2.15-.31-2.92-.21-.77-.53-1.4-.96-1.9s-.97-.86-1.62-1.1c-.65-.23-1.38-.35-2.19-.35-1.02,0-1.93.19-2.74.57-.81.38-1.47.97-2,1.76-.23.35-.42.75-.6,1.2l-.26-.02c0-.47.01-.95.03-1.41.03-.53.04-1.13.04-1.78h-6.3c0,1.67,0,3.49.02,5.46.01,1.97.02,4.29.02,6.95v4.8c0,1.4,0,2.7-.02,3.91s-.02,2.42-.02,3.62h6.3c0-.6-.01-1.21-.04-1.82-.03-.61-.03-1.31-.02-2.09.01-.78.03-1.7.04-2.74.01-1.04.02-2.29.02-3.74v-5.11c0-.65.06-1.21.18-1.68.12-.47.29-.84.51-1.12.22-.27.49-.48.8-.61s.65-.2,1.02-.2c.5,0,.87.09,1.14.25.26.17.46.44.59.82.13.38.2.89.2,1.55v6.44c0,1.97-.01,3.78-.04,5.44-.03,1.66-.05,3.19-.08,4.6h6.42c-.05-1.36-.09-2.71-.1-4.07-.01-1.36-.02-2.86-.02-4.5Z"/>
    <path d="M258.74,133.98c-.35-.73-.82-1.34-1.39-1.82-.57-.48-1.29-.84-2.13-1.08-.85-.23-1.87-.35-3.07-.35-1.41,0-2.65.22-3.72.65-1.07.43-1.96,1.12-2.66,2.08-.7.95-1.25,2.28-1.62,3.99-.38,1.71-.57,3.83-.57,6.36,0,1.88.12,3.53.35,4.95.23,1.42.57,2.62,1,3.58.43.97.99,1.73,1.66,2.29s1.47.97,2.37,1.23,1.9.39,3,.39,2.08-.08,2.86-.23c.78-.16,1.46-.39,2.04-.7.57-.31,1.06-.72,1.45-1.21.39-.5.68-1.08.88-1.74s.34-1.42.43-2.25c.09-.83.11-1.75.06-2.74-.44,0-.9,0-1.37.02-.47.01-.99.02-1.57.02h-1.86c-.27,0-.53-.01-.76-.04.03.57.01,1.08-.04,1.53-.05.44-.12.83-.2,1.16s-.2.57-.37.74-.37.3-.61.39c-.23.09-.5.14-.78.14-.44,0-.83-.1-1.15-.29-.33-.2-.59-.53-.8-1-.21-.47-.36-1.16-.45-2.07-.08-.78-.12-1.72-.13-2.82h.44c.48,0,1.01,0,1.59-.02.57-.01,1.17-.02,1.8-.02.57,0,1.13,0,1.66.02.53.01,1.06.02,1.57.02s1.02,0,1.53.02c.51.01.97.02,1.39.02.05-.31.08-.76.1-1.33.01-.57.03-1.2.06-1.88.03-.68.04-1.4.04-2.15,0-1.17-.08-2.26-.23-3.25s-.41-1.85-.76-2.58ZM252.91,141.91c-.35.01-.71,0-1.08-.02s-.7-.04-1.02-.04-.63,0-.96.02c-.09,0-.17,0-.26,0,.02-.77.06-1.45.1-2.04.09-1.19.25-2.1.47-2.74.22-.64.49-1.07.8-1.29s.67-.33,1.06-.33.74.07,1.04.22.53.38.69.7c.16.33.27.76.33,1.29.07.54.1,1.23.1,2.09s-.01,1.48-.04,1.94c0,.06,0,.12,0,.18h-.15c-.37,0-.72,0-1.08.02Z"/>
    <path d="M273.14,148.2c.21-.29.46-.59.74-.92.29-.33.64-.65,1.06-.96.42-.31.87-.64,1.37-.98.78-.47,1.49-.95,2.13-1.45.64-.5,1.21-1.04,1.72-1.62.51-.59.95-1.28,1.31-2.07.36-.8.66-1.7.88-2.7.22-1,.33-2.13.33-3.39,0-1.02-.09-1.94-.27-2.78-.18-.84-.48-1.57-.88-2.21s-.92-1.17-1.55-1.61-1.39-.78-2.29-1.04c-.9-.26-1.94-.39-3.11-.39-1.44,0-2.68.19-3.72.57-1.04.38-1.92.93-2.62,1.66-.7.73-1.2,1.64-1.49,2.72-.29,1.08-.43,2.3-.43,3.66,0,.31,0,.67.02,1.06s.03.78.06,1.17c.03.39.06.8.12,1.21.44,0,.93,0,1.47-.02.53-.01,1.1-.02,1.7-.02.39,0,.83,0,1.31.02.48.01.88.02,1.19.02-.03-.6-.05-1.12-.06-1.55-.01-.43-.02-.88-.02-1.35,0-.78.08-1.44.23-1.98.16-.53.41-.92.76-1.15s.8-.35,1.35-.35c.42,0,.8.1,1.15.29.35.2.61.5.78.9.17.41.25.93.25,1.59,0,.81-.09,1.53-.27,2.17-.18.64-.47,1.21-.86,1.72s-.87,1-1.43,1.47c-.56.47-1.23.97-2.02,1.49-.81.57-1.57,1.17-2.27,1.78-.7.61-1.33,1.3-1.86,2.06-.54.76-.95,1.62-1.23,2.58-.29.97-.43,2.09-.43,3.37,0,.47,0,.9.02,1.29s.02.81.02,1.25v1.25c0,.39-.01.69-.04.9h16.09c-.03-.44-.04-.92-.04-1.43v-3.37c0-.53.01-1.06.04-1.59-.84.05-1.75.09-2.74.1s-1.98.02-2.98.02h-4.1c.03-.16.06-.32.1-.47.1-.34.26-.65.47-.94Z"/>
    <path d="M300.06,139.13c-.51-.74-1.15-1.3-1.94-1.66s-1.68-.55-2.7-.55c-.78,0-1.52.1-2.21.31-.69.21-1.29.49-1.8.84-.17.12-.32.24-.47.37-.01-.44-.02-.88-.02-1.35v-4.03c0-.14,0-.26,0-.39.09,0,.18,0,.27,0,.55-.01,1.1-.02,1.64-.02h4.85c.44,0,.88,0,1.31-.02.43-.01.83,0,1.19.02.36.03.68.04.94.04-.03-.39-.06-.85-.1-1.39-.04-.53-.06-1.1-.06-1.7,0-.76.02-1.37.06-1.84s.07-.89.1-1.25c-.68,0-1.33.01-1.94.04-.61.03-1.21.04-1.8.04h-8.5c-.61,0-1.23-.01-1.84-.04-.61-.03-1.25-.04-1.9-.04.05.63.08,1.42.1,2.39.01.97.02,2,.02,3.11v8.69c0,.56-.01,1.08-.04,1.55.23,0,.49,0,.76.02.27.01.58.04.92.08s.68.07,1.02.1c.34.03.67.07,1,.14.33.07.65.12.98.18s.61.1.84.16c.18-.39.37-.71.57-.96.2-.25.45-.43.76-.55s.68-.18,1.1-.18c.5,0,.92.14,1.27.41s.61.76.78,1.45c.17.69.25,1.64.25,2.84s-.09,2.21-.25,2.96-.42,1.27-.74,1.59-.75.47-1.27.47c-.42,0-.76-.08-1.04-.25s-.5-.44-.69-.82-.33-.85-.43-1.41c-.11-.56-.16-1.21-.16-1.94v-.63c0-.21.01-.42.04-.63-.37.03-.78.05-1.25.06s-1,.02-1.61.02c-.52,0-1.04,0-1.55-.02s-.97-.03-1.39-.06c-.03.26-.04.53-.04.8s-.01.54-.04.78c-.03.25-.04.52-.04.8,0,1.15.09,2.2.27,3.15.18.95.48,1.77.88,2.45.4.68.93,1.24,1.59,1.68.65.44,1.44.78,2.37,1,.93.22,1.99.33,3.19.33,1.46,0,2.71-.19,3.74-.57,1.03-.38,1.88-.98,2.54-1.8s1.16-1.89,1.49-3.21c.33-1.32.49-2.88.49-4.68,0-1.57-.13-2.92-.39-4.05-.26-1.13-.65-2.07-1.15-2.82Z"/>
    <path d="M315.15,139.39c-.26.03-.61.05-1.04.06-.43.01-.89.03-1.37.04-.48.01-.97.02-1.45.02h-2.58c-.48,0-.97,0-1.45-.02-.48-.01-.92-.03-1.31-.04s-.73-.03-1.02-.06c.03.5.04,1,.04,1.51v3.11c0,.52-.01,1.04-.04,1.57.29-.03.63-.05,1.02-.06s.83-.02,1.33-.02h5.46c.48,0,.94,0,1.37.02.43.01.78.03,1.04.06-.03-.52-.05-1.04-.06-1.57-.01-.52-.02-1.04-.02-1.57s0-1.04.02-1.55c.01-.51.03-1.01.06-1.51Z"/>
    <path d="M325.13,148.2c.21-.29.46-.59.74-.92.29-.33.64-.65,1.06-.96.42-.31.87-.64,1.37-.98.78-.47,1.49-.95,2.13-1.45.64-.5,1.21-1.04,1.72-1.62.51-.59.95-1.28,1.31-2.07.36-.8.66-1.7.88-2.7.22-1,.33-2.13.33-3.39,0-1.02-.09-1.94-.27-2.78-.18-.84-.48-1.57-.88-2.21s-.92-1.17-1.55-1.61-1.39-.78-2.29-1.04c-.9-.26-1.94-.39-3.11-.39-1.44,0-2.68.19-3.72.57-1.04.38-1.92.93-2.62,1.66-.7.73-1.2,1.64-1.49,2.72-.29,1.08-.43,2.3-.43,3.66,0,.31,0,.67.02,1.06s.03.78.06,1.17c.03.39.06.8.12,1.21.44,0,.93,0,1.47-.02.53-.01,1.1-.02,1.7-.02.39,0,.83,0,1.31.02.48.01.88.02,1.19.02-.03-.6-.05-1.12-.06-1.55-.01-.43-.02-.88-.02-1.35,0-.78.08-1.44.23-1.98.16-.53.41-.92.76-1.15s.8-.35,1.35-.35c.42,0,.8.1,1.15.29.35.2.61.5.78.9.17.41.25.93.25,1.59,0,.81-.09,1.53-.27,2.17-.18.64-.47,1.21-.86,1.72s-.87,1-1.43,1.47c-.56.47-1.23.97-2.02,1.49-.81.57-1.57,1.17-2.27,1.78-.7.61-1.33,1.3-1.86,2.06-.54.76-.95,1.62-1.23,2.58-.29.97-.43,2.09-.43,3.37,0,.47,0,.9.02,1.29s.02.81.02,1.25v1.25c0,.39-.01.69-.04.9h16.09c-.03-.44-.04-.92-.04-1.43v-3.37c0-.53.01-1.06.04-1.59-.84.05-1.75.09-2.74.1s-1.98.02-2.98.02h-4.1c.03-.16.06-.32.1-.47.1-.34.26-.65.47-.94Z"/>
    <path d="M351.68,126.51h-14.84c.05.6.08,1.17.1,1.72.01.55.02,1.12.02,1.72s0,1.19-.02,1.76c-.01.57-.05,1.15-.1,1.72.86,0,1.74,0,2.64-.02.9-.01,1.81-.03,2.72-.04.78-.01,1.55-.02,2.3-.02-.06.14-.13.26-.19.41-.44,1.06-.88,2.24-1.31,3.56-.43,1.32-.84,2.74-1.21,4.27-.38,1.53-.73,3.09-1.06,4.68-.33,1.59-.59,3.21-.78,4.85s-.28,3.22-.25,4.74h1.19c.46,0,.91,0,1.35-.02.44-.01.89-.02,1.33-.02s.87,0,1.27.02c.4.01.82.02,1.23.02h1.25c0-1.75.05-3.41.14-4.99.09-1.58.23-3.1.41-4.56.18-1.46.41-2.84.68-4.13s.59-2.51.94-3.64.7-2.15,1.04-3.05c.34-.9.72-1.68,1.14-2.33-.03-.5-.05-.99-.06-1.49-.01-.5-.02-1.06-.02-1.68,0-.57,0-1.18.02-1.82.01-.64.03-1.19.06-1.66Z"/>
    <path class="cls-1" d="M364.29,137.47c-.76-.44-1.68-.67-2.78-.67-1.64,0-2.9.5-3.78,1.51-.87,1-1.31,2.56-1.31,4.68s.42,3.74,1.25,4.8c.83,1.06,2.11,1.59,3.84,1.59s2.94-.53,3.8-1.59,1.29-2.66,1.29-4.8c0-1.38-.2-2.54-.59-3.46-.39-.93-.97-1.61-1.72-2.06Z"/>
    <path d="M383.41,132.24c0-.93.01-1.85.04-2.76.03-.91.04-1.9.04-2.98h-6.89c.08.63.14,1.46.18,2.51.04,1.04.06,2.23.08,3.54.01,1.32.02,2.75.02,4.31s0,3.17.02,4.84c.01,1.67.02,3.33.02,4.97,0,.5-.07.91-.2,1.25-.13.34-.33.59-.59.74-.26.16-.59.23-.98.23-.5,0-.92-.06-1.27-.18s-.68-.25-1-.41c-.03.23-.05.6-.08,1.1-.03.5-.07,1.04-.12,1.64-.05.6-.1,1.19-.16,1.78-.05.59-.1,1.11-.16,1.57-.05.46-.1.82-.16,1.08.76.18,1.55.34,2.39.47.84.13,1.64.2,2.43.2,1.2,0,2.23-.18,3.07-.55.85-.37,1.51-.91,2-1.62s.84-1.57,1.06-2.55c.22-.98.33-2.04.33-3.19,0-2.19-.01-4.14-.04-5.83-.03-1.7-.04-3.14-.04-4.33v-5.83Z"/>
    <path d="M403.73,131.13h-6.34v1.8c0,.63,0,1.32.02,2.07.01.76.03,1.68.04,2.76.01,1.08.02,2.36.02,3.82v5.17c0,.68-.07,1.25-.2,1.72-.13.47-.32.85-.57,1.14-.25.29-.53.49-.84.61s-.64.18-.98.18c-.44,0-.8-.08-1.06-.25s-.46-.44-.61-.8c-.14-.36-.22-.87-.22-1.53v-6.52c0-2,0-3.84.02-5.52.01-1.68.03-3.23.06-4.64h-6.34c0,1.33.01,2.68.04,4.03.03,1.36.04,2.85.04,4.46,0,.73,0,1.46-.02,2.19-.01.73-.02,1.49-.02,2.29s0,1.69-.02,2.68-.02,2.1-.02,3.33c0,1.07.11,1.98.33,2.74.22.76.56,1.38,1.02,1.86.46.48,1,.85,1.64,1.1.64.25,1.34.37,2.09.37,1.07,0,2-.18,2.8-.55.8-.37,1.45-.95,1.98-1.76.24-.38.45-.81.63-1.28l.21.03c-.01.52-.02,1.03-.02,1.53,0,.52-.01,1.1-.04,1.72h6.34c-.03-1.67-.03-3.5-.02-5.5.01-2,.02-4.3.02-6.91,0-1.83-.01-3.45-.04-4.85-.03-1.41-.03-2.71-.02-3.91.01-1.2.03-2.39.06-3.56Z"/>
    <path d="M413.16,140.91v-8.5c0-1.25.01-2.45.04-3.58s.05-2.23.08-3.27h-6.46c.03,1.07.05,2.19.06,3.37.01,1.17.03,2.38.04,3.6s.02,2.49.02,3.8v12.14c0,1.33,0,2.62-.02,3.86-.01,1.24-.05,2.42-.1,3.54h6.42c-.03-1.12-.05-2.24-.06-3.37-.01-1.12-.02-2.28-.02-3.48v-8.1Z"/>
    <path d="M426.28,132.34c-.08.55-.16,1.17-.25,1.88-.09.7-.2,1.46-.31,2.27-.12.81-.23,1.63-.35,2.47-.12.84-.24,1.67-.37,2.51-.16,1.23-.31,2.43-.47,3.6s-.29,2.23-.39,3.17c-.02.17-.03.31-.05.47h-.12c-.06-.61-.12-1.27-.18-1.98-.13-1.58-.35-3.32-.67-5.23-.08-.84-.18-1.67-.31-2.51-.13-.83-.24-1.65-.33-2.45-.09-.8-.18-1.55-.27-2.25-.09-.7-.18-1.33-.27-1.88-.09-.55-.14-.98-.14-1.29h-6.77c.21.89.44,1.97.68,3.25.25,1.28.51,2.64.78,4.09.27,1.45.54,2.9.8,4.37.26,1.46.51,2.85.74,4.17.23,1.32.46,2.46.67,3.43.21.97.35,1.7.43,2.19.16,0,.4,0,.72-.02.33-.01.72-.03,1.17-.04.46-.01.95-.02,1.49-.02h.56c-.02.14-.04.29-.07.43-.08.39-.2.71-.37.96-.17.25-.37.45-.59.61-.22.16-.48.28-.76.37-.29.09-.63.14-1.02.14s-.76-.01-1.12-.04c-.35-.03-.72-.07-1.1-.14-.38-.07-.75-.14-1.12-.22-.37-.08-.7-.17-1.02-.27-.03.23-.06.56-.1.98-.04.42-.09.86-.14,1.33-.05.47-.11.97-.18,1.49-.07.52-.12.98-.18,1.37-.05.39-.1.68-.16.86.52.13,1.04.24,1.55.33.51.09,1.06.18,1.64.27s1.26.14,2.02.14c1.02,0,1.92-.1,2.7-.31.78-.21,1.47-.53,2.08-.96.6-.43,1.12-.94,1.55-1.53s.81-1.31,1.14-2.15c.33-.85.61-1.78.84-2.8.13-.7.29-1.6.47-2.68.18-1.08.4-2.29.65-3.62.25-1.33.49-2.74.72-4.23.23-1.49.49-2.95.76-4.39.27-1.44.53-2.78.78-4.03.25-1.25.48-2.36.68-3.33h-6.26c-.05.26-.12.67-.2,1.21Z"/>
    <path d="M445.08,148.2c.21-.29.46-.59.74-.92.29-.33.64-.65,1.06-.96.42-.31.87-.64,1.37-.98.78-.47,1.49-.95,2.13-1.45.64-.5,1.21-1.04,1.72-1.62.51-.59.95-1.28,1.31-2.07.36-.8.66-1.7.88-2.7.22-1,.33-2.13.33-3.39,0-1.02-.09-1.94-.27-2.78-.18-.84-.48-1.57-.88-2.21s-.92-1.17-1.55-1.61-1.39-.78-2.29-1.04c-.9-.26-1.94-.39-3.11-.39-1.44,0-2.68.19-3.72.57-1.04.38-1.92.93-2.62,1.66-.7.73-1.2,1.64-1.49,2.72-.29,1.08-.43,2.3-.43,3.66,0,.31,0,.67.02,1.06s.03.78.06,1.17c.03.39.06.8.12,1.21.44,0,.93,0,1.47-.02.53-.01,1.1-.02,1.7-.02.39,0,.83,0,1.31.02.48.01.88.02,1.19.02-.03-.6-.05-1.12-.06-1.55-.01-.43-.02-.88-.02-1.35,0-.78.08-1.44.23-1.98.16-.53.41-.92.76-1.15s.8-.35,1.35-.35c.42,0,.8.1,1.15.29.35.2.61.5.78.9.17.41.25.93.25,1.59,0,.81-.09,1.53-.27,2.17-.18.64-.47,1.21-.86,1.72s-.87,1-1.43,1.47c-.56.47-1.23.97-2.02,1.49-.81.57-1.57,1.17-2.27,1.78-.7.61-1.33,1.3-1.86,2.06-.54.76-.95,1.62-1.23,2.58-.29.97-.43,2.09-.43,3.37,0,.47,0,.9.02,1.29s.02.81.02,1.25v1.25c0,.39-.01.69-.04.9h16.09c-.03-.44-.04-.92-.04-1.43v-3.37c0-.53.01-1.06.04-1.59-.84.05-1.75.09-2.74.1s-1.98.02-2.98.02h-4.1c.03-.16.06-.32.1-.47.1-.34.26-.65.47-.94Z"/>
    <path d="M467.36,139.39c-.26.03-.61.05-1.04.06-.43.01-.89.03-1.37.04-.48.01-.97.02-1.45.02h-2.58c-.48,0-.97,0-1.45-.02-.48-.01-.92-.03-1.31-.04s-.73-.03-1.02-.06c.03.5.04,1,.04,1.51v3.11c0,.52-.01,1.04-.04,1.57.29-.03.63-.05,1.02-.06s.83-.02,1.33-.02h5.46c.48,0,.94,0,1.37.02.43.01.78.03,1.04.06-.03-.52-.05-1.04-.06-1.57-.01-.52-.02-1.04-.02-1.57s0-1.04.02-1.55c.01-.51.03-1.01.06-1.51Z"/>
    <path d="M488.48,145.36c.01-.48.02-.95.02-1.39-.5.03-1.04.05-1.64.06-.12,0-.26,0-.38,0,0-.92,0-1.88,0-2.88,0-2.09,0-3.97.02-5.64.01-1.67.03-3.24.04-4.7.01-1.46.02-2.9.02-4.31h-6.22c.03.65.04,1.49.04,2.51v7.07c0,1.27,0,2.49.02,3.66.01,1.17.02,2.23.02,3.17v1.13h-1.29c-.39,0-.76,0-1.1-.02-.34-.01-.67-.02-1-.02h-.55c0-.22,0-.42.02-.67.05-.99.12-2.12.22-3.39.09-1.27.18-2.56.25-3.88.08-1.32.17-2.6.27-3.86.1-1.25.19-2.37.25-3.37.06-.99.11-1.77.14-2.35h-6.38c-.03.55-.06,1.41-.1,2.58-.04,1.17-.09,2.55-.16,4.11-.07,1.57-.14,3.2-.23,4.89-.09,1.7-.19,3.32-.29,4.87-.11,1.55-.2,2.93-.27,4.13-.08,1.2-.14,2.07-.2,2.62.65,0,1.34,0,2.07-.02s1.45-.03,2.15-.04,1.39-.03,2.06-.04,1.29-.02,1.86-.02c.52,0,1.03.01,1.55.02,0,.31-.01.61-.02.94-.03.95-.05,1.89-.08,2.8-.03.91-.04,1.75-.04,2.51h7.16c0-1.41-.03-2.84-.08-4.31-.02-.59-.04-1.21-.06-1.83.65.01,1.29.02,1.93.03,0-.5-.01-.98-.04-1.47-.03-.48-.03-1,0-1.55,0-.44,0-.91.02-1.39Z"/>
    <path class="cls-1" d="M502.14,137.47c-.76-.44-1.68-.67-2.78-.67-1.64,0-2.9.5-3.78,1.51-.87,1-1.31,2.56-1.31,4.68s.42,3.74,1.25,4.8c.83,1.06,2.11,1.59,3.84,1.59s2.94-.53,3.8-1.59c.86-1.06,1.29-2.66,1.29-4.8,0-1.38-.2-2.54-.59-3.46-.39-.93-.97-1.61-1.72-2.06Z"/>
    <path d="M517.39,148.2c.21-.29.46-.59.74-.92.29-.33.64-.65,1.06-.96.42-.31.87-.64,1.37-.98.78-.47,1.49-.95,2.13-1.45.64-.5,1.21-1.04,1.72-1.62.51-.59.95-1.28,1.31-2.07.36-.8.66-1.7.88-2.7.22-1,.33-2.13.33-3.39,0-1.02-.09-1.94-.27-2.78-.18-.84-.48-1.57-.88-2.21s-.92-1.17-1.55-1.61-1.39-.78-2.29-1.04c-.9-.26-1.94-.39-3.11-.39-1.44,0-2.68.19-3.72.57-1.04.38-1.92.93-2.62,1.66-.7.73-1.2,1.64-1.49,2.72-.29,1.08-.43,2.3-.43,3.66,0,.31,0,.67.02,1.06s.03.78.06,1.17c.03.39.06.8.12,1.21.44,0,.93,0,1.47-.02.53-.01,1.1-.02,1.7-.02.39,0,.83,0,1.31.02.48.01.88.02,1.19.02-.03-.6-.05-1.12-.06-1.55-.01-.43-.02-.88-.02-1.35,0-.78.08-1.44.23-1.98.16-.53.41-.92.76-1.15s.8-.35,1.35-.35c.42,0,.8.1,1.15.29.35.2.61.5.78.9.17.41.25.93.25,1.59,0,.81-.09,1.53-.27,2.17-.18.64-.47,1.21-.86,1.72s-.87,1-1.43,1.47c-.56.47-1.23.97-2.02,1.49-.81.57-1.57,1.17-2.27,1.78-.7.61-1.33,1.3-1.86,2.06-.54.76-.95,1.62-1.23,2.58-.29.97-.43,2.09-.43,3.37,0,.47,0,.9.02,1.29s.02.81.02,1.25v1.25c0,.39-.01.69-.04.9h16.09c-.03-.44-.04-.92-.04-1.43v-3.37c0-.53.01-1.06.04-1.59-.84.05-1.75.09-2.74.1s-1.98.02-2.98.02h-4.1c.03-.16.06-.32.1-.47.1-.34.26-.65.47-.94Z"/>
    <path d="M544.97,129.13c-.8-1.1-1.78-1.87-2.96-2.33-1.17-.46-2.52-.68-4.03-.68s-2.8.23-3.93.68c-1.13.46-2.09,1.23-2.86,2.33-.77,1.1-1.35,2.58-1.74,4.46-.39,1.88-.59,4.23-.59,7.05s.18,5.23.53,7.24.89,3.62,1.62,4.83c.73,1.21,1.68,2.11,2.84,2.7,1.16.59,2.56.88,4.21.88s2.98-.29,4.17-.88c1.19-.59,2.14-1.49,2.86-2.7s1.27-2.82,1.64-4.83c.38-2.01.57-4.42.57-7.24s-.19-5.2-.57-7.07c-.38-1.87-.97-3.35-1.76-4.44ZM540.56,145.22c-.1,1.17-.26,2.06-.47,2.66-.21.6-.49,1.02-.84,1.25s-.75.35-1.19.35c-.47,0-.88-.11-1.21-.33-.34-.22-.62-.64-.84-1.25-.22-.61-.39-1.5-.49-2.66-.1-1.16-.16-2.67-.16-4.52s.05-3.22.16-4.33c.1-1.11.27-1.96.51-2.56.23-.6.52-1,.84-1.19.33-.2.72-.29,1.19-.29.42,0,.8.1,1.14.31.34.21.63.61.86,1.21.23.6.4,1.45.51,2.55s.16,2.53.16,4.31-.05,3.33-.16,4.5Z"/>
    <path d="M555.99,148.2c.21-.29.46-.59.74-.92.29-.33.64-.65,1.06-.96.42-.31.87-.64,1.37-.98.78-.47,1.49-.95,2.13-1.45.64-.5,1.21-1.04,1.72-1.62.51-.59.95-1.28,1.31-2.07.36-.8.66-1.7.88-2.7.22-1,.33-2.13.33-3.39,0-1.02-.09-1.94-.27-2.78-.18-.84-.48-1.57-.88-2.21s-.92-1.17-1.55-1.61-1.39-.78-2.29-1.04c-.9-.26-1.94-.39-3.11-.39-1.44,0-2.68.19-3.72.57-1.04.38-1.92.93-2.62,1.66-.7.73-1.2,1.64-1.49,2.72-.29,1.08-.43,2.3-.43,3.66,0,.31,0,.67.02,1.06s.03.78.06,1.17c.03.39.06.8.12,1.21.44,0,.93,0,1.47-.02.53-.01,1.1-.02,1.7-.02.39,0,.83,0,1.31.02.48.01.88.02,1.19.02-.03-.6-.05-1.12-.06-1.55-.01-.43-.02-.88-.02-1.35,0-.78.08-1.44.23-1.98.16-.53.41-.92.76-1.15s.8-.35,1.35-.35c.42,0,.8.1,1.15.29.35.2.61.5.78.9.17.41.25.93.25,1.59,0,.81-.09,1.53-.27,2.17-.18.64-.47,1.21-.86,1.72s-.87,1-1.43,1.47c-.56.47-1.23.97-2.02,1.49-.81.57-1.57,1.17-2.27,1.78-.7.61-1.33,1.3-1.86,2.06-.54.76-.95,1.62-1.23,2.58-.29.97-.43,2.09-.43,3.37,0,.47,0,.9.02,1.29s.02.81.02,1.25v1.25c0,.39-.01.69-.04.9h16.09c-.03-.44-.04-.92-.04-1.43v-3.37c0-.53.01-1.06.04-1.59-.84.05-1.75.09-2.74.1s-1.98.02-2.98.02h-4.1c.03-.16.06-.32.1-.47.1-.34.26-.65.47-.94Z"/>
    <path d="M584.72,142.3c-.23-.95-.6-1.75-1.1-2.39-.5-.64-1.16-1.11-2-1.41-.84-.3-1.84-.45-3.01-.45-.99,0-1.86.17-2.6.51-.74.34-1.36.86-1.84,1.55-.12.18-.21.39-.32.58l-.31-.07s0,0,0,0c.04-.61.08-1.21.14-1.78.05-.57.08-1.17.08-1.8,0-1.02.06-1.89.2-2.62.13-.73.33-1.32.59-1.78.26-.46.57-.77.92-.94.35-.17.76-.25,1.23-.25.55,0,1,.15,1.37.45.36.3.62.73.76,1.29.14.56.22,1.22.22,1.98v.72c0,.09-.01.2-.04.33.26,0,.55,0,.86-.02.31-.01.65-.03,1-.04.35-.01.71-.02,1.08-.02.55,0,1.08.01,1.61.04.52.03.99.04,1.41.04v-1.64c0-1.25-.1-2.34-.29-3.25-.2-.91-.51-1.71-.94-2.39-.43-.68-.98-1.22-1.64-1.62-.67-.4-1.44-.71-2.31-.92-.88-.21-1.89-.31-3.03-.31-1.41,0-2.63.17-3.66.51-1.03.34-1.89.87-2.58,1.61-.69.73-1.26,1.67-1.7,2.82-.44,1.15-.76,2.53-.94,4.13-.18,1.6-.27,3.46-.27,5.58,0,3.05.18,5.59.53,7.6.35,2.01.91,3.6,1.66,4.76.76,1.16,1.7,1.98,2.84,2.47,1.14.48,2.49.72,4.05.72,1.46,0,2.73-.19,3.8-.57,1.07-.38,1.95-1,2.64-1.86.69-.86,1.19-1.95,1.51-3.27.31-1.32.47-2.9.47-4.76,0-1.38-.12-2.55-.35-3.5ZM578.69,148.98c-.16.73-.41,1.25-.76,1.57s-.8.47-1.35.47c-.39,0-.74-.08-1.04-.25-.3-.17-.56-.46-.78-.86-.22-.4-.38-.92-.47-1.55-.09-.63-.14-1.41-.14-2.35,0-.99.11-1.77.33-2.35.22-.57.51-.98.86-1.23.35-.25.78-.37,1.27-.37.55,0,.99.12,1.31.37.33.25.57.67.74,1.25.17.59.25,1.39.25,2.41,0,1.2-.08,2.17-.23,2.9Z"/>
  </g>
  <g>
    <g>
      <path d="M25.35,72.39c0,8.61,2.03,11.4,8.61,11.4s8.36-2.66,8.36-8.23c0-7.09-2.41-12.16-12.54-15.83-18.24-6.71-23.31-15.71-23.31-31.41S15.34,3.23,34.34,3.23c20.9,0,27.74,7.85,27.74,24.7,0,2.66-.13,5.45-.25,8.61-2.53-.13-6.46-.25-10.01-.25-3.17,0-6.08,0-7.98.13.13-2.41.13-4.56.13-6.84,0-6.21-2.03-9.25-8.61-9.25-5.83,0-7.98,2.79-7.98,7.85-.13,6.21,1.52,11.02,12.54,15.33,15.83,6.21,22.8,14.82,22.8,31.41s-7.85,26.09-27.74,26.09c-21.66,0-28.75-8.87-28.75-25.08,0-3.42.13-6.08.38-8.99,2.66.25,6.46.51,10.51.51,3.17,0,6.08,0,8.23-.25v5.19Z"/>
      <g>
        <path d="M360.76,4.62c-.25,12.41-.38,26.6-.38,47.37s.13,33.95.38,47.63h-20.65c.38-14.82.63-25.21.63-40.79,0-7.73.51-17.23.89-26.09l-.51-.13c-1.39,8.74-3.04,17.61-4.31,23.18l-10.64,43.83h-8.87l-10.77-44.46c-1.39-5.83-3.04-14.57-4.43-22.67l-.38.13c.25,9.12.76,17.73.89,26.22,0,15.71.25,26.09.51,40.79h-18.24c.25-13.68.38-27.49.38-47.63s-.13-34.96-.25-47.37h27.11c1.9,8.36,5.19,23.81,8.87,38.76.89,4.43,1.77,10.89,2.66,16.85h.51c1.01-6.08,1.9-12.29,2.79-16.72,3.42-14.95,7.09-30.4,8.87-38.89h24.95Z"/>
        <path d="M421.81,4.62c-.13,2.28-.13,6.33-.13,9.5,0,3.42,0,7.98.13,10.39-10.26-.13-20.39-.25-28.5-.25v17.99c9.75,0,19.38,0,27.61-.25,0,4.05-.13,13.43,0,17.99-8.11-.25-17.86-.38-27.61-.38v18.87c8.23,0,18.75-.13,28.5-.25-.13,2.66-.13,7.22-.13,11.02,0,3.29,0,7.73.13,10.39h-49.78c.38-12.67.38-27.23.38-47.5s0-35.59-.38-47.5h49.78Z"/>
        <path d="M474.5,61.87c9.25,1.39,12.67,5.07,15.07,17.48,1.52,7.09,2.91,15.71,3.93,20.27h-19.51c-3.04,0-3.55-1.39-4.94-7.85-2.53-21.28-3.67-24.19-8.87-24.19-2.66,0-4.18,0-7.35.13.13,12.92.38,24.07,1.01,31.92h-21.91c.13-13.68.38-27.23.38-47.5s-.13-33.82-.38-47.5h32.43c16.72,0,26.09,6.97,26.09,28.37,0,18.24-4.31,26.09-15.96,28.25v.63ZM469.81,36.92c0-12.92-3.17-15.2-9.75-15.07-1.52-.13-4.69,0-7.47.13,0,10.13,0,20.39.13,30.02,2.03,0,5.07,0,8.49.13,5.95,0,8.61-4.43,8.61-15.2Z"/>
        <path d="M522.12,47.18v3.04c9.12,0,18.24-.13,25.97-.38-.13,5.19-.13,15.58-.13,20.9-7.6,0-16.72-.13-25.71-.13.13,9.88.38,19.89.76,29.01h-22.29c.13-13.05.25-27.36.25-47.5s0-34.2-.25-47.5h48.13c-.13,3.04-.25,7.6-.25,11.53s.13,8.36.13,11.27c-9.37-.13-18.87-.25-26.6-.25v20.01Z"/>
        <path d="M607.12,4.62c-.13,2.28-.13,6.33-.13,9.5,0,3.42,0,7.98.13,10.39-10.26-.13-20.39-.25-28.5-.25v17.99c9.75,0,19.38,0,27.61-.25,0,4.05-.13,13.43,0,17.99-8.11-.25-17.86-.38-27.61-.38v18.87c8.23,0,18.75-.13,28.5-.25-.13,2.66-.13,7.22-.13,11.02,0,3.29,0,7.73.13,10.39h-49.78c.38-12.67.38-27.23.38-47.5s0-35.59-.38-47.5h49.78Z"/>
        <path d="M634.09,72.39c0,8.61,2.03,11.4,8.61,11.4s8.36-2.66,8.36-8.23c0-7.09-2.41-12.16-12.54-15.83-18.24-6.71-23.31-15.71-23.31-31.41s8.87-25.08,27.87-25.08c20.9,0,27.74,7.85,27.74,24.7,0,2.66-.13,5.45-.25,8.61-2.53-.13-6.46-.25-10.01-.25-3.17,0-6.08,0-7.98.13.13-2.41.13-4.56.13-6.84,0-6.21-2.03-9.25-8.61-9.25-5.83,0-7.98,2.79-7.98,7.85-.13,6.21,1.52,11.02,12.54,15.33,15.83,6.21,22.8,14.82,22.8,31.41s-7.85,26.09-27.74,26.09c-21.66,0-28.75-8.87-28.75-25.08,0-3.42.13-6.08.38-8.99,2.66.25,6.46.51,10.51.51,3.17,0,6.08,0,8.23-.25v5.19Z"/>
        <path d="M725.42,4.62v22.29c-4.69-.13-9.37-.25-13.68-.25,0,29.77.13,65.99.38,73.09-3.04-.25-7.98-.25-11.4-.25s-8.11,0-11.27.25c.38-6.97.51-43.19.51-73.09-4.43,0-9.12.13-13.93.25.13-3.04.13-7.73.13-11.4,0-3.93,0-8.11-.13-10.89h49.4Z"/>
        <path d="M273.55,4.62h-24.95c-1.77,8.49-5.45,23.94-8.87,38.89-.89,4.43-1.77,10.64-2.79,16.72h-.51c-.89-5.95-1.77-12.41-2.66-16.85-3.67-14.95-6.97-30.4-8.87-38.76h-27.11c.08,8.12.17,17.01.21,27.99,0,0-.17,58.16-.34,67.01h18.24c-.25-14.69-.51-25.08-.51-40.79-.13-8.49-.63-17.1-.89-26.22l.38-.13c1.39,8.11,3.04,16.85,4.43,22.67l10.77,44.46h8.87l10.64-43.83c1.27-5.57,2.91-14.44,4.31-23.18l.51.13c-.38,8.87-.89,18.37-.89,26.09,0,15.58-.25,25.97-.63,40.79h20.65c-.25-13.68-.38-27.49-.38-47.63s.13-34.96.38-47.37Z"/>
      </g>
    </g>
    <g>
      <circle class="cls-1" cx="118.2" cy="25.07" r="19.5"/>
      <path class="cls-1" d="M95.34,21.88l-26.46-3.25c-.06,0-.12-.01-.18-.01-.72,0-1.36.54-1.43,1.28-.25,2.42-.39,4.86-.39,7.35,0,39.73,32.21,71.95,71.93,71.95,36.27,0,66.25-26.85,71.2-61.76.11-.79-.46-1.53-1.26-1.63l-26.46-3.25c-.06,0-.12-.01-.18-.01-.7,0-1.3.52-1.41,1.23-3.14,20.32-20.7,35.88-41.89,35.88-23.42,0-42.41-18.99-42.41-42.41,0-1.28.06-2.54.18-3.79.07-.78-.47-1.48-1.25-1.57Z"/>
      <circle class="cls-1" cx="159.25" cy="30" r="19.5"/>
    </g>
  </g>
  <g>
    <path class="cls-2" d="M722.53,152.83h.41c.34,0,.66-.02.66-.41,0-.33-.29-.38-.55-.38h-.52v.79ZM722.14,151.73h.96c.59,0,.87.23.87.71s-.28.64-.65.68l.71,1.1h-.42l-.68-1.07h-.41v1.07h-.39v-2.49ZM722.97,154.79c.99,0,1.75-.79,1.75-1.83s-.76-1.8-1.75-1.8-1.76.79-1.76,1.8.76,1.83,1.76,1.83M722.97,150.84c1.16,0,2.14.92,2.14,2.12s-.97,2.14-2.14,2.14-2.15-.92-2.15-2.14.98-2.12,2.15-2.12"/>
    <path class="cls-2" d="M722.53,152.83h.41c.34,0,.66-.02.66-.41,0-.33-.29-.38-.55-.38h-.52v.79ZM722.14,151.73h.96c.59,0,.87.23.87.71s-.28.64-.65.68l.71,1.1h-.42l-.68-1.07h-.41v1.07h-.39v-2.49ZM722.97,154.79c.99,0,1.75-.79,1.75-1.83s-.76-1.8-1.75-1.8-1.76.79-1.76,1.8.76,1.83,1.76,1.83M722.97,150.84c1.16,0,2.14.92,2.14,2.12s-.97,2.14-2.14,2.14-2.15-.92-2.15-2.14.98-2.12,2.15-2.12"/>
    <polygon class="cls-3" points="721.28 127.3 671.6 127.3 638.2 118.95 602.62 128.63 603.53 132.01 638.2 122.58 671.13 130.81 721.28 130.81 721.28 127.3"/>
    <polygon class="cls-2" points="631.54 136.45 628.32 136.45 628.32 137.89 630.88 137.89 630.88 139.73 628.32 139.73 628.32 141.43 631.52 141.43 631.52 143.27 626.01 143.27 626.01 134.61 631.54 134.61 631.54 136.45"/>
    <rect class="cls-2" x="642" y="134.61" width="2.32" height="8.65"/>
    <rect class="cls-2" x="702.07" y="134.61" width="2.32" height="8.65"/>
    <polygon class="cls-2" points="677.99 143.26 675.67 143.26 675.67 134.61 681.2 134.61 681.2 136.45 677.99 136.45 677.99 137.89 680.54 137.89 680.54 139.73 677.99 139.73 677.99 143.26"/>
    <polygon class="cls-2" points="706.7 143.26 712.22 143.26 712.22 141.07 709.02 141.07 709.02 134.61 706.7 134.61 706.7 143.26"/>
    <polygon class="cls-2" points="667.23 134.61 667.23 139.31 664.9 134.61 662.3 134.61 662.3 143.26 664.56 143.26 664.56 138.57 666.88 143.26 669.48 143.26 669.48 134.61 667.23 134.61"/>
    <path class="cls-2" d="M610.06,139.71l-.65-1.92-.65,1.92h1.3ZM610.65,134.61l2.92,8.65h-2.38l-.58-1.72h-2.41l-.58,1.72h-2.2l2.92-8.65h2.3Z"/>
    <path class="cls-2" d="M657.72,139.71l-.65-1.92-.65,1.92h1.3ZM658.31,134.61l2.92,8.65h-2.38l-.58-1.72h-2.41l-.58,1.72h-2.2l2.92-8.65h2.3Z"/>
    <path class="cls-2" d="M686.01,139.71l-.65-1.92-.65,1.92h1.3ZM686.6,134.61l2.92,8.65h-2.37l-.58-1.72h-2.41l-.58,1.72h-2.2l2.92-8.65h2.29Z"/>
    <path class="cls-2" d="M635.82,138.29v-1.74h.94c.22,0,.46,0,.66.12.23.15.36.44.36.74,0,.78-.6.88-1.11.88h-.86ZM636.88,140.42l1.07,2.84h2.23l-1.32-3.52c.89-.49,1.32-1.21,1.32-2.4,0-.89-.29-1.7-.92-2.17-.56-.45-1.28-.56-1.93-.56h-3.82v8.65h2.32v-2.84h1.06Z"/>
    <polygon class="cls-2" points="717.03 134.61 715.36 137.78 713.69 134.61 711.42 134.61 714.2 139.9 714.2 143.26 716.51 143.26 716.51 139.9 719.3 134.61 717.03 134.61"/>
    <polygon class="cls-2" points="621.75 143.26 621.75 139.36 620.22 143.26 618.54 143.26 617.02 139.36 617.02 143.26 614.77 143.26 614.77 134.61 617.35 134.61 619.38 139.8 621.41 134.61 623.99 134.61 623.99 143.26 621.75 143.26"/>
    <polygon class="cls-2" points="697.51 143.26 697.51 139.36 695.97 143.26 694.3 143.26 692.77 139.36 692.77 143.26 690.53 143.26 690.53 134.61 693.11 134.61 695.14 139.8 697.17 134.61 699.75 134.61 699.75 143.26 697.51 143.26"/>
    <path class="cls-2" d="M651.4,137.05c-.34-.34-.77-.55-1.23-.55-1.07,0-1.97,1.11-1.97,2.43s.9,2.43,1.97,2.43c.46,0,.89-.21,1.23-.55l1.21,1.48c-.7.75-1.64,1.21-2.68,1.21-2.19,0-3.96-2.04-3.96-4.56s1.77-4.57,3.96-4.57c1.04,0,1.98.46,2.68,1.21l-1.21,1.47Z"/>
    <path class="cls-2" d="M637.92,150.83c.31.05.42.21.42.37,0,.26-.2.45-.92.45-.36,0-.62-.04-.79-.12-.16-.08-.24-.21-.25-.39h-2.8c.01,1.61,1.96,1.84,3.75,1.84,2.61,0,3.78-.63,3.78-1.96,0-.93-.72-1.43-1.9-1.6l-2.78-.38c-.23-.03-.31-.13-.31-.28,0-.23.24-.39.93-.39.26,0,.52.03.72.11.22.08.35.21.35.44h2.71c-.08-1.16-1.16-1.79-3.79-1.79-1.91,0-3.4.38-3.4,1.8,0,.77.47,1.38,1.61,1.54l2.65.37ZM645.08,150.71c0,1.74,1.37,2.27,3.75,2.27s3.76-.53,3.76-2.27v-3.4h-2.33v3.31c0,.7-.67.93-1.43.93s-1.43-.22-1.43-.93v-3.31h-2.32v3.4ZM679.91,152.79h2.22v-2.71h.02l2.47,2.71h2.55v-5.47h-2.23v2.68h-.02l-2.36-2.68h-2.65v5.47ZM622.07,152.79h2.22v-2.71h.02l2.47,2.71h2.55v-5.47h-2.23v2.68h-.02l-2.36-2.68h-2.65v5.47ZM703.34,152.79h6.56v-1.33h-4.24v-.74h3.96v-1.33h-3.96v-.74h4.24v-1.33h-6.56v5.47ZM696.49,150.66c-.19.66-.63.94-1.36.94-.85,0-1.43-.44-1.43-1.55s.6-1.55,1.55-1.55c.9,0,1.18.57,1.24.96h2.62c-.31-2.17-2.47-2.34-3.86-2.34s-4.02.09-4.02,2.93,2.61,2.93,4.02,2.93,2.31-.22,2.87-.62c.58-.4.84-.98.99-1.7h-2.62ZM668.03,152.79h2.47l.25-.63h2.42l.25.63h2.47l-2.5-5.47h-2.85l-2.5,5.47ZM671.97,148.97h-.02l-.69,1.86h1.4l-.69-1.86ZM614.77,152.79h2.32v-5.47h-2.32v5.47ZM660.68,149.64c.51,0,1.12-.06,1.12-.55,0-.19-.13-.38-.37-.47-.2-.08-.44-.08-.67-.08h-1.44v1.1h1.36ZM660.87,150.99l1.08,1.8h2.28l-1.34-2.23c.9-.31,1.34-.76,1.34-1.52,0-.56-.3-1.07-.93-1.37-.57-.29-1.3-.36-1.97-.36h-4.32v5.47h2.31v-1.8h1.54ZM605.43,145h113.82v10.1h-113.82v-10.1Z"/>
  </g>
</svg>